# MagicaVoxel @ Ephtracy

# group
o 

# material
mtllib sign.mtl
usemtl palette

# normals
vn -1 0 0
vn 1 0 0
vn 0 0 1
vn 0 0 -1
vn 0 -1 0
vn 0 1 0

# texcoords
vt 0.0957031 0.5
vt 0.314453 0.5
vt 0.345703 0.5

# verts
v -1.4 5.7 1.9
v -1.4 5.7 1.7
v -1.4 7 1.9
v -1.4 7 1.7
v -1.1 6.1 1.9
v -1.1 6.1 1.8
v -1.1 6.6 1.9
v -1.1 6.6 1.8
v -1 6 1.9
v -1 6 1.8
v -1 6.1 1.9
v -1 6.1 1.8
v -1 6.6 1.9
v -1 6.6 1.8
v -1 6.7 1.9
v -1 6.7 1.8
v -0.7 6.1 1.9
v -0.7 6.1 1.8
v -0.7 6.2 1.9
v -0.7 6.2 1.8
v -0.7 6.5 1.9
v -0.7 6.5 1.8
v -0.7 6.6 1.9
v -0.7 6.6 1.8
v -0.4 6 1.9
v -0.4 6 1.8
v -0.4 6.6 1.9
v -0.4 6.6 1.8
v -0.3 6.6 1.9
v -0.3 6.6 1.8
v -0.3 6.7 1.9
v -0.3 6.7 1.8
v -0.1 6 1.9
v -0.1 6 1.8
v -0.1 6.2 1.9
v -0.1 6.2 1.8
v -0.1 6.3 1.9
v -0.1 6.3 1.8
v -0.1 6.6 1.9
v -0.1 6.6 1.8
v 0.3 6 1.9
v 0.3 6 1.8
v 0.3 6.6 1.9
v 0.3 6.6 1.8
v 0.4 6.6 1.9
v 0.4 6.6 1.8
v 0.4 6.7 1.9
v 0.4 6.7 1.8
v 0.9 6 1.9
v 0.9 6 1.8
v 0.9 6.7 1.9
v 0.9 6.7 1.8
v 1.4 5.8 1.9
v 1.4 5.8 1.8
v 1.4 5.9 1.9
v 1.4 5.9 1.8
v 1.4 6.8 1.9
v 1.4 6.8 1.8
v 1.4 6.9 1.9
v 1.4 6.9 1.8
v 1.5 5.9 1.9
v 1.5 5.9 1.8
v 1.5 6.8 1.9
v 1.5 6.8 1.8
v -1.3 5.9 1.9
v -1.3 5.9 1.8
v -1.3 6.8 1.9
v -1.3 6.8 1.8
v -1.2 5.8 1.9
v -1.2 5.8 1.8
v -1.2 5.9 1.9
v -1.2 5.9 1.8
v -1.2 6.8 1.9
v -1.2 6.8 1.8
v -1.2 6.9 1.9
v -1.2 6.9 1.8
v -0.9 6.1 1.9
v -0.9 6.1 1.8
v -0.9 6.6 1.9
v -0.9 6.6 1.8
v -0.7 6 1.9
v -0.7 6 1.8
v -0.7 6.1 1.9
v -0.7 6.1 1.8
v -0.7 6.6 1.9
v -0.7 6.6 1.8
v -0.7 6.7 1.9
v -0.7 6.7 1.8
v -0.6 6.1 1.9
v -0.6 6.1 1.8
v -0.6 6.2 1.9
v -0.6 6.2 1.8
v -0.6 6.5 1.9
v -0.6 6.5 1.8
v -0.6 6.6 1.9
v -0.6 6.6 1.8
v -0.2 6 1.9
v -0.2 6 1.8
v -0.2 6.2 1.9
v -0.2 6.2 1.8
v -0.2 6.3 1.9
v -0.2 6.3 1.8
v -0.2 6.6 1.9
v -0.2 6.6 1.8
v 0 6.6 1.9
v 0 6.6 1.8
v 0 6.7 1.9
v 0 6.7 1.8
v 0.1 6 1.9
v 0.1 6 1.8
v 0.1 6.6 1.9
v 0.1 6.6 1.8
v 0.5 6 1.9
v 0.5 6 1.8
v 0.5 6.2 1.9
v 0.5 6.2 1.8
v 0.5 6.4 1.9
v 0.5 6.4 1.8
v 0.5 6.5 1.9
v 0.5 6.5 1.8
v 0.6 6.2 1.9
v 0.6 6.2 1.8
v 0.6 6.4 1.9
v 0.6 6.4 1.8
v 0.7 6.5 1.9
v 0.7 6.5 1.8
v 0.7 6.7 1.9
v 0.7 6.7 1.8
v 1.1 6.1 1.9
v 1.1 6.1 1.8
v 1.1 6.3 1.9
v 1.1 6.3 1.8
v 1.1 6.4 1.9
v 1.1 6.4 1.8
v 1.1 6.6 1.9
v 1.1 6.6 1.8
v 1.2 6.3 1.9
v 1.2 6.3 1.8
v 1.2 6.4 1.9
v 1.2 6.4 1.8
v 1.3 6 1.9
v 1.3 6 1.8
v 1.3 6.1 1.9
v 1.3 6.1 1.8
v 1.3 6.6 1.9
v 1.3 6.6 1.8
v 1.3 6.7 1.9
v 1.3 6.7 1.8
v 1.6 5.7 1.9
v 1.6 5.7 1.7
v 1.6 7 1.9
v 1.6 7 1.7
v -1.4 5.7 1.9
v -1.4 7 1.9
v -1.3 5.9 1.9
v -1.3 6.8 1.9
v -1.2 5.8 1.9
v -1.2 5.9 1.9
v -1.2 6.8 1.9
v -1.2 6.9 1.9
v -1.1 6.1 1.9
v -1.1 6.6 1.9
v -1 6 1.9
v -1 6.1 1.9
v -1 6.6 1.9
v -1 6.7 1.9
v -0.9 6.1 1.9
v -0.9 6.6 1.9
v -0.7 6 1.9
v -0.7 6.1 1.9
v -0.7 6.2 1.9
v -0.7 6.5 1.9
v -0.7 6.6 1.9
v -0.7 6.7 1.9
v -0.6 6.1 1.9
v -0.6 6.2 1.9
v -0.6 6.5 1.9
v -0.6 6.6 1.9
v -0.4 6 1.9
v -0.4 6.6 1.9
v -0.3 6.6 1.9
v -0.3 6.7 1.9
v -0.2 6 1.9
v -0.2 6.2 1.9
v -0.2 6.3 1.9
v -0.2 6.6 1.9
v -0.1 6 1.9
v -0.1 6.2 1.9
v -0.1 6.3 1.9
v -0.1 6.6 1.9
v 0 6.6 1.9
v 0 6.7 1.9
v 0.1 6 1.9
v 0.1 6.6 1.9
v 0.3 6 1.9
v 0.3 6.6 1.9
v 0.4 6.6 1.9
v 0.4 6.7 1.9
v 0.5 6 1.9
v 0.5 6.2 1.9
v 0.5 6.4 1.9
v 0.5 6.5 1.9
v 0.6 6.2 1.9
v 0.6 6.4 1.9
v 0.7 6.5 1.9
v 0.7 6.7 1.9
v 0.9 6 1.9
v 0.9 6.7 1.9
v 1.1 6.1 1.9
v 1.1 6.3 1.9
v 1.1 6.4 1.9
v 1.1 6.6 1.9
v 1.2 6.3 1.9
v 1.2 6.4 1.9
v 1.3 6 1.9
v 1.3 6.1 1.9
v 1.3 6.6 1.9
v 1.3 6.7 1.9
v 1.4 5.8 1.9
v 1.4 5.9 1.9
v 1.4 6.8 1.9
v 1.4 6.9 1.9
v 1.5 5.9 1.9
v 1.5 6.8 1.9
v 1.6 5.7 1.9
v 1.6 7 1.9
v -1.3 5.9 1.8
v -1.3 6.8 1.8
v -1.2 5.8 1.8
v -1.2 5.9 1.8
v -1.2 6.8 1.8
v -1.2 6.9 1.8
v -1.1 6.1 1.8
v -1.1 6.6 1.8
v -1 6 1.8
v -1 6.1 1.8
v -1 6.6 1.8
v -1 6.7 1.8
v -0.9 6.1 1.8
v -0.9 6.6 1.8
v -0.7 6 1.8
v -0.7 6.1 1.8
v -0.7 6.2 1.8
v -0.7 6.5 1.8
v -0.7 6.6 1.8
v -0.7 6.7 1.8
v -0.6 6.1 1.8
v -0.6 6.2 1.8
v -0.6 6.5 1.8
v -0.6 6.6 1.8
v -0.4 6 1.8
v -0.4 6.6 1.8
v -0.3 6.6 1.8
v -0.3 6.7 1.8
v -0.2 6 1.8
v -0.2 6.2 1.8
v -0.2 6.3 1.8
v -0.2 6.6 1.8
v -0.1 6 1.8
v -0.1 6.2 1.8
v -0.1 6.3 1.8
v -0.1 6.6 1.8
v 0 6.6 1.8
v 0 6.7 1.8
v 0.1 6 1.8
v 0.1 6.6 1.8
v 0.3 6 1.8
v 0.3 6.6 1.8
v 0.4 6.6 1.8
v 0.4 6.7 1.8
v 0.5 6 1.8
v 0.5 6.2 1.8
v 0.5 6.4 1.8
v 0.5 6.5 1.8
v 0.6 6.2 1.8
v 0.6 6.4 1.8
v 0.7 6.5 1.8
v 0.7 6.7 1.8
v 0.9 6 1.8
v 0.9 6.7 1.8
v 1.1 6.1 1.8
v 1.1 6.3 1.8
v 1.1 6.4 1.8
v 1.1 6.6 1.8
v 1.2 6.3 1.8
v 1.2 6.4 1.8
v 1.3 6 1.8
v 1.3 6.1 1.8
v 1.3 6.6 1.8
v 1.3 6.7 1.8
v 1.4 5.8 1.8
v 1.4 5.9 1.8
v 1.4 6.8 1.8
v 1.4 6.9 1.8
v 1.5 5.9 1.8
v 1.5 6.8 1.8
v -1.4 5.7 1.7
v -1.4 7 1.7
v -1.3 5.8 1.7
v -1.3 6.9 1.7
v 1.5 5.8 1.7
v 1.5 6.9 1.7
v 1.6 5.7 1.7
v 1.6 7 1.7
v -1.4 5.7 1.9
v 1.6 5.7 1.9
v -1.4 5.7 1.7
v 1.6 5.7 1.7
v -1 6 1.9
v -0.7 6 1.9
v -0.4 6 1.9
v -0.2 6 1.9
v -0.1 6 1.9
v 0.1 6 1.9
v 0.3 6 1.9
v 0.5 6 1.9
v 0.9 6 1.9
v 1.3 6 1.9
v -1 6 1.8
v -0.7 6 1.8
v -0.4 6 1.8
v -0.2 6 1.8
v -0.1 6 1.8
v 0.1 6 1.8
v 0.3 6 1.8
v 0.5 6 1.8
v 0.9 6 1.8
v 1.3 6 1.8
v -1.1 6.1 1.9
v -1 6.1 1.9
v -0.7 6.1 1.9
v -0.6 6.1 1.9
v -1.1 6.1 1.8
v -1 6.1 1.8
v -0.7 6.1 1.8
v -0.6 6.1 1.8
v -0.2 6.2 1.9
v -0.1 6.2 1.9
v 0.5 6.2 1.9
v 0.6 6.2 1.9
v -0.2 6.2 1.8
v -0.1 6.2 1.8
v 0.5 6.2 1.8
v 0.6 6.2 1.8
v 1.1 6.3 1.9
v 1.2 6.3 1.9
v 1.1 6.3 1.8
v 1.2 6.3 1.8
v -0.7 6.5 1.9
v -0.6 6.5 1.9
v 0.5 6.5 1.9
v 0.7 6.5 1.9
v -0.7 6.5 1.8
v -0.6 6.5 1.8
v 0.5 6.5 1.8
v 0.7 6.5 1.8
v -0.9 6.6 1.9
v -0.7 6.6 1.9
v -0.2 6.6 1.9
v -0.1 6.6 1.9
v 1.1 6.6 1.9
v 1.3 6.6 1.9
v -0.9 6.6 1.8
v -0.7 6.6 1.8
v -0.2 6.6 1.8
v -0.1 6.6 1.8
v 1.1 6.6 1.8
v 1.3 6.6 1.8
v -1.3 6.8 1.9
v -1.2 6.8 1.9
v 1.4 6.8 1.9
v 1.5 6.8 1.9
v -1.3 6.8 1.8
v -1.2 6.8 1.8
v 1.4 6.8 1.8
v 1.5 6.8 1.8
v -1.2 6.9 1.9
v 1.4 6.9 1.9
v -1.2 6.9 1.8
v 1.4 6.9 1.8
v -1.2 5.8 1.9
v 1.4 5.8 1.9
v -1.2 5.8 1.8
v 1.4 5.8 1.8
v -1.3 5.9 1.9
v -1.2 5.9 1.9
v 1.4 5.9 1.9
v 1.5 5.9 1.9
v -1.3 5.9 1.8
v -1.2 5.9 1.8
v 1.4 5.9 1.8
v 1.5 5.9 1.8
v -0.9 6.1 1.9
v -0.7 6.1 1.9
v 1.1 6.1 1.9
v 1.3 6.1 1.9
v -0.9 6.1 1.8
v -0.7 6.1 1.8
v 1.1 6.1 1.8
v 1.3 6.1 1.8
v -0.7 6.2 1.9
v -0.6 6.2 1.9
v -0.7 6.2 1.8
v -0.6 6.2 1.8
v -0.2 6.3 1.9
v -0.1 6.3 1.9
v -0.2 6.3 1.8
v -0.1 6.3 1.8
v 0.5 6.4 1.9
v 0.6 6.4 1.9
v 1.1 6.4 1.9
v 1.2 6.4 1.9
v 0.5 6.4 1.8
v 0.6 6.4 1.8
v 1.1 6.4 1.8
v 1.2 6.4 1.8
v -1.1 6.6 1.9
v -1 6.6 1.9
v -0.7 6.6 1.9
v -0.6 6.6 1.9
v -0.4 6.6 1.9
v -0.3 6.6 1.9
v 0 6.6 1.9
v 0.1 6.6 1.9
v 0.3 6.6 1.9
v 0.4 6.6 1.9
v -1.1 6.6 1.8
v -1 6.6 1.8
v -0.7 6.6 1.8
v -0.6 6.6 1.8
v -0.4 6.6 1.8
v -0.3 6.6 1.8
v 0 6.6 1.8
v 0.1 6.6 1.8
v 0.3 6.6 1.8
v 0.4 6.6 1.8
v -1 6.7 1.9
v -0.7 6.7 1.9
v -0.3 6.7 1.9
v 0 6.7 1.9
v 0.4 6.7 1.9
v 0.7 6.7 1.9
v 0.9 6.7 1.9
v 1.3 6.7 1.9
v -1 6.7 1.8
v -0.7 6.7 1.8
v -0.3 6.7 1.8
v 0 6.7 1.8
v 0.4 6.7 1.8
v 0.7 6.7 1.8
v 0.9 6.7 1.8
v 1.3 6.7 1.8
v -1.4 7 1.9
v 1.6 7 1.9
v -1.4 7 1.7
v 1.6 7 1.7

# faces
f 3/1/1 2/1/1 1/1/1
f 4/1/1 2/1/1 3/1/1
f 7/3/1 6/3/1 5/3/1
f 8/3/1 6/3/1 7/3/1
f 11/3/1 10/3/1 9/3/1
f 12/3/1 10/3/1 11/3/1
f 15/3/1 14/3/1 13/3/1
f 16/3/1 14/3/1 15/3/1
f 19/3/1 18/3/1 17/3/1
f 20/3/1 18/3/1 19/3/1
f 23/3/1 22/3/1 21/3/1
f 24/3/1 22/3/1 23/3/1
f 27/3/1 26/3/1 25/3/1
f 28/3/1 26/3/1 27/3/1
f 31/3/1 30/3/1 29/3/1
f 32/3/1 30/3/1 31/3/1
f 35/3/1 34/3/1 33/3/1
f 36/3/1 34/3/1 35/3/1
f 39/3/1 38/3/1 37/3/1
f 40/3/1 38/3/1 39/3/1
f 43/3/1 42/3/1 41/3/1
f 44/3/1 42/3/1 43/3/1
f 47/3/1 46/3/1 45/3/1
f 48/3/1 46/3/1 47/3/1
f 51/3/1 50/3/1 49/3/1
f 52/3/1 50/3/1 51/3/1
f 55/1/1 54/1/1 53/1/1
f 56/1/1 54/1/1 55/1/1
f 59/1/1 58/1/1 57/1/1
f 60/1/1 58/1/1 59/1/1
f 63/1/1 62/1/1 61/1/1
f 64/1/1 62/1/1 63/1/1
f 65/1/2 66/1/2 67/1/2
f 67/1/2 66/1/2 68/1/2
f 69/1/2 70/1/2 71/1/2
f 71/1/2 70/1/2 72/1/2
f 73/1/2 74/1/2 75/1/2
f 75/1/2 74/1/2 76/1/2
f 77/3/2 78/3/2 79/3/2
f 79/3/2 78/3/2 80/3/2
f 81/3/2 82/3/2 83/3/2
f 83/3/2 82/3/2 84/3/2
f 85/3/2 86/3/2 87/3/2
f 87/3/2 86/3/2 88/3/2
f 89/3/2 90/3/2 91/3/2
f 91/3/2 90/3/2 92/3/2
f 93/3/2 94/3/2 95/3/2
f 95/3/2 94/3/2 96/3/2
f 97/3/2 98/3/2 99/3/2
f 99/3/2 98/3/2 100/3/2
f 101/3/2 102/3/2 103/3/2
f 103/3/2 102/3/2 104/3/2
f 105/3/2 106/3/2 107/3/2
f 107/3/2 106/3/2 108/3/2
f 109/3/2 110/3/2 111/3/2
f 111/3/2 110/3/2 112/3/2
f 113/3/2 114/3/2 115/3/2
f 115/3/2 114/3/2 116/3/2
f 117/3/2 118/3/2 119/3/2
f 119/3/2 118/3/2 120/3/2
f 121/3/2 122/3/2 123/3/2
f 123/3/2 122/3/2 124/3/2
f 125/3/2 126/3/2 127/3/2
f 127/3/2 126/3/2 128/3/2
f 129/3/2 130/3/2 131/3/2
f 131/3/2 130/3/2 132/3/2
f 133/3/2 134/3/2 135/3/2
f 135/3/2 134/3/2 136/3/2
f 137/3/2 138/3/2 139/3/2
f 139/3/2 138/3/2 140/3/2
f 141/3/2 142/3/2 143/3/2
f 143/3/2 142/3/2 144/3/2
f 145/3/2 146/3/2 147/3/2
f 147/3/2 146/3/2 148/3/2
f 149/1/2 150/1/2 151/1/2
f 151/1/2 150/1/2 152/1/2
f 155/1/3 154/1/3 153/1/3
f 156/1/3 154/1/3 155/1/3
f 157/1/3 155/1/3 153/1/3
f 158/1/3 155/1/3 157/1/3
f 159/1/3 154/1/3 156/1/3
f 160/1/3 154/1/3 159/1/3
f 164/3/3 162/3/3 161/3/3
f 165/3/3 162/3/3 164/3/3
f 167/3/3 164/3/3 163/3/3
f 167/3/3 166/3/3 165/3/3
f 167/3/3 165/3/3 164/3/3
f 168/3/3 166/3/3 167/3/3
f 169/3/3 167/3/3 163/3/3
f 170/3/3 167/3/3 169/3/3
f 173/3/3 166/3/3 168/3/3
f 174/3/3 166/3/3 173/3/3
f 175/3/3 171/3/3 170/3/3
f 176/3/3 171/3/3 175/3/3
f 177/3/3 173/3/3 172/3/3
f 178/3/3 173/3/3 177/3/3
f 181/3/3 180/3/3 179/3/3
f 183/3/3 181/3/3 179/3/3
f 183/3/3 182/3/3 181/3/3
f 184/3/3 182/3/3 183/3/3
f 185/3/3 182/3/3 184/3/3
f 186/3/3 182/3/3 185/3/3
f 188/3/3 185/3/3 184/3/3
f 189/3/3 185/3/3 188/3/3
f 190/3/3 182/3/3 186/3/3
f 191/3/3 189/3/3 188/3/3
f 191/3/3 190/3/3 189/3/3
f 191/3/3 182/3/3 190/3/3
f 191/3/3 188/3/3 187/3/3
f 192/3/3 182/3/3 191/3/3
f 193/3/3 191/3/3 187/3/3
f 194/3/3 191/3/3 193/3/3
f 197/3/3 196/3/3 195/3/3
f 199/3/3 197/3/3 195/3/3
f 199/3/3 198/3/3 197/3/3
f 200/3/3 198/3/3 199/3/3
f 201/3/3 198/3/3 200/3/3
f 202/3/3 198/3/3 201/3/3
f 203/3/3 201/3/3 200/3/3
f 204/3/3 201/3/3 203/3/3
f 205/3/3 198/3/3 202/3/3
f 206/3/3 198/3/3 205/3/3
f 209/3/3 208/3/3 207/3/3
f 210/3/3 208/3/3 209/3/3
f 211/3/3 208/3/3 210/3/3
f 212/3/3 208/3/3 211/3/3
f 213/3/3 211/3/3 210/3/3
f 214/3/3 211/3/3 213/3/3
f 215/3/3 209/3/3 207/3/3
f 216/3/3 209/3/3 215/3/3
f 217/3/3 208/3/3 212/3/3
f 218/3/3 208/3/3 217/3/3
f 219/1/3 157/1/3 153/1/3
f 222/1/3 154/1/3 160/1/3
f 223/1/3 220/1/3 219/1/3
f 224/1/3 222/1/3 221/1/3
f 225/1/3 223/1/3 219/1/3
f 225/1/3 224/1/3 223/1/3
f 225/1/3 219/1/3 153/1/3
f 226/1/3 222/1/3 224/1/3
f 226/1/3 224/1/3 225/1/3
f 226/1/3 154/1/3 222/1/3
f 230/2/3 228/2/3 227/2/3
f 231/2/3 228/2/3 230/2/3
f 233/2/3 230/2/3 229/2/3
f 233/2/3 232/2/3 231/2/3
f 233/2/3 231/2/3 230/2/3
f 234/2/3 232/2/3 233/2/3
f 235/2/3 233/2/3 229/2/3
f 236/2/3 233/2/3 235/2/3
f 237/2/3 232/2/3 234/2/3
f 238/2/3 232/2/3 237/2/3
f 241/2/3 235/2/3 229/2/3
f 242/2/3 240/2/3 239/2/3
f 243/2/3 240/2/3 242/2/3
f 244/2/3 240/2/3 243/2/3
f 245/2/3 240/2/3 244/2/3
f 246/2/3 232/2/3 238/2/3
f 247/2/3 242/2/3 241/2/3
f 248/2/3 244/2/3 243/2/3
f 249/2/3 244/2/3 248/2/3
f 250/2/3 246/2/3 245/2/3
f 251/2/3 249/2/3 248/2/3
f 251/2/3 250/2/3 249/2/3
f 251/2/3 241/2/3 229/2/3
f 251/2/3 247/2/3 241/2/3
f 251/2/3 248/2/3 247/2/3
f 252/2/3 246/2/3 250/2/3
f 252/2/3 250/2/3 251/2/3
f 253/2/3 246/2/3 252/2/3
f 254/2/3 232/2/3 246/2/3
f 254/2/3 246/2/3 253/2/3
f 255/2/3 251/2/3 229/2/3
f 259/2/3 255/2/3 229/2/3
f 259/2/3 256/2/3 255/2/3
f 260/2/3 256/2/3 259/2/3
f 261/2/3 258/2/3 257/2/3
f 262/2/3 258/2/3 261/2/3
f 264/2/3 232/2/3 254/2/3
f 265/2/3 259/2/3 229/2/3
f 266/2/3 264/2/3 263/2/3
f 267/2/3 265/2/3 229/2/3
f 267/2/3 266/2/3 265/2/3
f 268/2/3 264/2/3 266/2/3
f 268/2/3 266/2/3 267/2/3
f 269/2/3 264/2/3 268/2/3
f 270/2/3 232/2/3 264/2/3
f 270/2/3 264/2/3 269/2/3
f 271/2/3 267/2/3 229/2/3
f 275/2/3 272/2/3 271/2/3
f 276/2/3 274/2/3 273/2/3
f 277/2/3 274/2/3 276/2/3
f 277/2/3 276/2/3 275/2/3
f 278/2/3 232/2/3 270/2/3
f 279/2/3 277/2/3 275/2/3
f 279/2/3 278/2/3 277/2/3
f 279/2/3 271/2/3 229/2/3
f 279/2/3 275/2/3 271/2/3
f 280/2/3 232/2/3 278/2/3
f 280/2/3 278/2/3 279/2/3
f 285/2/3 282/2/3 281/2/3
f 286/2/3 284/2/3 283/2/3
f 287/2/3 279/2/3 229/2/3
f 288/2/3 286/2/3 285/2/3
f 288/2/3 285/2/3 281/2/3
f 289/2/3 284/2/3 286/2/3
f 289/2/3 286/2/3 288/2/3
f 290/2/3 232/2/3 280/2/3
f 291/2/3 287/2/3 229/2/3
f 291/2/3 290/2/3 289/2/3
f 291/2/3 289/2/3 288/2/3
f 291/2/3 288/2/3 287/2/3
f 292/2/3 290/2/3 291/2/3
f 293/2/3 232/2/3 290/2/3
f 293/2/3 290/2/3 292/2/3
f 294/2/3 232/2/3 293/2/3
f 295/2/3 293/2/3 292/2/3
f 296/2/3 293/2/3 295/2/3
f 297/1/4 298/1/4 299/1/4
f 299/1/4 298/1/4 300/1/4
f 297/1/4 299/1/4 301/1/4
f 299/2/4 300/2/4 301/2/4
f 300/1/4 298/1/4 302/1/4
f 301/2/4 300/2/4 302/2/4
f 297/1/4 301/1/4 303/1/4
f 301/1/4 302/1/4 303/1/4
f 302/1/4 298/1/4 304/1/4
f 303/1/4 302/1/4 304/1/4
f 307/1/5 306/1/5 305/1/5
f 308/1/5 306/1/5 307/1/5
f 319/3/5 310/3/5 309/3/5
f 320/3/5 310/3/5 319/3/5
f 321/3/5 312/3/5 311/3/5
f 322/3/5 312/3/5 321/3/5
f 323/3/5 314/3/5 313/3/5
f 324/3/5 314/3/5 323/3/5
f 325/3/5 316/3/5 315/3/5
f 326/3/5 316/3/5 325/3/5
f 327/3/5 318/3/5 317/3/5
f 328/3/5 318/3/5 327/3/5
f 333/3/5 330/3/5 329/3/5
f 334/3/5 330/3/5 333/3/5
f 335/3/5 332/3/5 331/3/5
f 336/3/5 332/3/5 335/3/5
f 341/3/5 338/3/5 337/3/5
f 342/3/5 338/3/5 341/3/5
f 343/3/5 340/3/5 339/3/5
f 344/3/5 340/3/5 343/3/5
f 347/3/5 346/3/5 345/3/5
f 348/3/5 346/3/5 347/3/5
f 353/3/5 350/3/5 349/3/5
f 354/3/5 350/3/5 353/3/5
f 355/3/5 352/3/5 351/3/5
f 356/3/5 352/3/5 355/3/5
f 363/3/5 358/3/5 357/3/5
f 364/3/5 358/3/5 363/3/5
f 365/3/5 360/3/5 359/3/5
f 366/3/5 360/3/5 365/3/5
f 367/3/5 362/3/5 361/3/5
f 368/3/5 362/3/5 367/3/5
f 373/1/5 370/1/5 369/1/5
f 374/1/5 370/1/5 373/1/5
f 375/1/5 372/1/5 371/1/5
f 376/1/5 372/1/5 375/1/5
f 379/1/5 378/1/5 377/1/5
f 380/1/5 378/1/5 379/1/5
f 381/1/6 382/1/6 383/1/6
f 383/1/6 382/1/6 384/1/6
f 385/1/6 386/1/6 389/1/6
f 389/1/6 386/1/6 390/1/6
f 387/1/6 388/1/6 391/1/6
f 391/1/6 388/1/6 392/1/6
f 393/3/6 394/3/6 397/3/6
f 397/3/6 394/3/6 398/3/6
f 395/3/6 396/3/6 399/3/6
f 399/3/6 396/3/6 400/3/6
f 401/3/6 402/3/6 403/3/6
f 403/3/6 402/3/6 404/3/6
f 405/3/6 406/3/6 407/3/6
f 407/3/6 406/3/6 408/3/6
f 409/3/6 410/3/6 413/3/6
f 413/3/6 410/3/6 414/3/6
f 411/3/6 412/3/6 415/3/6
f 415/3/6 412/3/6 416/3/6
f 417/3/6 418/3/6 427/3/6
f 427/3/6 418/3/6 428/3/6
f 419/3/6 420/3/6 429/3/6
f 429/3/6 420/3/6 430/3/6
f 421/3/6 422/3/6 431/3/6
f 431/3/6 422/3/6 432/3/6
f 423/3/6 424/3/6 433/3/6
f 433/3/6 424/3/6 434/3/6
f 425/3/6 426/3/6 435/3/6
f 435/3/6 426/3/6 436/3/6
f 437/3/6 438/3/6 445/3/6
f 445/3/6 438/3/6 446/3/6
f 439/3/6 440/3/6 447/3/6
f 447/3/6 440/3/6 448/3/6
f 441/3/6 442/3/6 449/3/6
f 449/3/6 442/3/6 450/3/6
f 443/3/6 444/3/6 451/3/6
f 451/3/6 444/3/6 452/3/6
f 453/1/6 454/1/6 455/1/6
f 455/1/6 454/1/6 456/1/6
