# MagicaVoxel @ Ephtracy

# group
o 

# material
mtllib dispenser.mtl
usemtl palette

# normals
vn -1 0 0
vn 1 0 0
vn 0 0 1
vn 0 0 -1
vn 0 -1 0
vn 0 1 0

# texcoords
vt 0.314453 0.5
vt 0.318359 0.5
vt 0.376953 0.5

# verts
v -3 0 0.3
v -3 0 0.2
v -3 0 -1.4
v -3 0 -1.5
v -3 0.1 0.2
v -3 0.1 -1.4
v -3 0.2 -0.5
v -3 0.2 -1
v -3 0.4 -0.5
v -3 0.4 -1
v -3 0.5 0.2
v -3 0.5 0
v -3 0.5 -0.1
v -3 0.5 -1.4
v -3 0.7 0.2
v -3 0.7 0
v -3 1.2 0.2
v -3 1.2 0
v -3 2.6 0.2
v -3 2.6 0
v -3 2.7 -0.1
v -3 2.7 -1.4
v -3 2.8 0.3
v -3 2.8 -1.5
v -2.9 0.5 -0.1
v -2.9 0.5 -1.4
v -2.9 2.7 -0.1
v -2.9 2.7 -1.4
v -2.8 0.2 -0.5
v -2.8 0.2 -1
v -2.8 0.4 -0.5
v -2.8 0.4 -1
v -2 0 0.3
v -2 0 0.2
v -2 0 -1.4
v -2 0 -1.5
v -2 0.1 0.3
v -2 0.1 0.2
v -2 0.1 -1.4
v -2 0.1 -1.5
v -2.9 0 0.3
v -2.9 0 0.2
v -2.9 0 -1.4
v -2.9 0 -1.5
v -2.9 0.1 0.3
v -2.9 0.1 0.2
v -2.9 0.1 -1.4
v -2.9 0.1 -1.5
v -1.9 0 0.3
v -1.9 0 0.2
v -1.9 0 -1.4
v -1.9 0 -1.5
v -1.9 0.1 0.2
v -1.9 0.1 -1.4
v -1.9 2.8 0.3
v -1.9 2.8 -1.5
v -3 0 0.3
v -3 2.8 0.3
v -2.9 0 0.3
v -2.9 0.1 0.3
v -2 0 0.3
v -2 0.1 0.3
v -1.9 0 0.3
v -1.9 2.8 0.3
v -3 0.2 -1
v -3 0.4 -1
v -2.8 0.2 -1
v -2.8 0.4 -1
v -3 0 -1.4
v -3 0.1 -1.4
v -3 0.5 -1.4
v -3 2.7 -1.4
v -2.9 0 -1.4
v -2.9 0.1 -1.4
v -2.9 0.5 -1.4
v -2.9 2.7 -1.4
v -2 0 -1.4
v -2 0.1 -1.4
v -1.9 0 -1.4
v -1.9 0.1 -1.4
v -3 0 0.2
v -3 0.1 0.2
v -2.9 0 0.2
v -2.9 0.1 0.2
v -2 0 0.2
v -2 0.1 0.2
v -1.9 0 0.2
v -1.9 0.1 0.2
v -3 0.5 -0.1
v -3 2.7 -0.1
v -2.9 0.5 -0.1
v -2.9 2.7 -0.1
v -3 0.2 -0.5
v -3 0.4 -0.5
v -2.8 0.2 -0.5
v -2.8 0.4 -0.5
v -3 0 -1.5
v -3 2.8 -1.5
v -2.9 0 -1.5
v -2.9 0.1 -1.5
v -2 0 -1.5
v -2 0.1 -1.5
v -1.9 0 -1.5
v -1.9 2.8 -1.5
v -3 0 0.3
v -2.9 0 0.3
v -2 0 0.3
v -1.9 0 0.3
v -3 0 0.2
v -2.9 0 0.2
v -2 0 0.2
v -1.9 0 0.2
v -3 0 -1.4
v -2.9 0 -1.4
v -2 0 -1.4
v -1.9 0 -1.4
v -3 0 -1.5
v -2.9 0 -1.5
v -2 0 -1.5
v -1.9 0 -1.5
v -2.9 0.1 0.3
v -2 0.1 0.3
v -3 0.1 0.2
v -2.9 0.1 0.2
v -2 0.1 0.2
v -1.9 0.1 0.2
v -3 0.1 -1.4
v -2.9 0.1 -1.4
v -2 0.1 -1.4
v -1.9 0.1 -1.4
v -2.9 0.1 -1.5
v -2 0.1 -1.5
v -3 0.4 -0.5
v -2.8 0.4 -0.5
v -3 0.4 -1
v -2.8 0.4 -1
v -3 2.7 -0.1
v -2.9 2.7 -0.1
v -3 2.7 -1.4
v -2.9 2.7 -1.4
v -3 0.2 -0.5
v -2.8 0.2 -0.5
v -3 0.2 -1
v -2.8 0.2 -1
v -3 0.5 -0.1
v -2.9 0.5 -0.1
v -3 0.5 -1.4
v -2.9 0.5 -1.4
v -3 2.8 0.3
v -1.9 2.8 0.3
v -3 2.8 -1.5
v -1.9 2.8 -1.5

# faces
f 5/1/1 2/1/1 1/1/1
f 6/1/1 4/1/1 3/1/1
f 7/1/1 6/1/1 5/1/1
f 8/1/1 6/1/1 7/1/1
f 9/1/1 7/1/1 5/1/1
f 10/1/1 6/1/1 8/1/1
f 11/1/1 5/1/1 1/1/1
f 11/1/1 10/1/1 9/1/1
f 11/1/1 9/1/1 5/1/1
f 12/1/1 10/1/1 11/1/1
f 13/1/1 10/1/1 12/1/1
f 14/1/1 6/1/1 10/1/1
f 14/1/1 10/1/1 13/1/1
f 14/1/1 4/1/1 6/1/1
f 15/3/1 12/3/1 11/3/1
f 15/1/1 11/1/1 1/1/1
f 16/1/1 13/1/1 12/1/1
f 16/3/1 12/3/1 15/3/1
f 17/1/1 15/1/1 1/1/1
f 17/1/1 16/1/1 15/1/1
f 18/1/1 13/1/1 16/1/1
f 18/1/1 16/1/1 17/1/1
f 19/1/1 17/1/1 1/1/1
f 19/2/1 18/2/1 17/2/1
f 20/1/1 13/1/1 18/1/1
f 20/2/1 18/2/1 19/2/1
f 21/1/1 20/1/1 19/1/1
f 21/1/1 13/1/1 20/1/1
f 22/1/1 4/1/1 14/1/1
f 23/1/1 19/1/1 1/1/1
f 23/1/1 22/1/1 21/1/1
f 23/1/1 21/1/1 19/1/1
f 24/1/1 4/1/1 22/1/1
f 24/1/1 22/1/1 23/1/1
f 27/3/1 26/3/1 25/3/1
f 28/3/1 26/3/1 27/3/1
f 31/2/1 30/2/1 29/2/1
f 32/2/1 30/2/1 31/2/1
f 37/1/1 34/1/1 33/1/1
f 38/1/1 34/1/1 37/1/1
f 39/1/1 36/1/1 35/1/1
f 40/1/1 36/1/1 39/1/1
f 41/1/2 42/1/2 45/1/2
f 45/1/2 42/1/2 46/1/2
f 43/1/2 44/1/2 47/1/2
f 47/1/2 44/1/2 48/1/2
f 49/1/2 50/1/2 53/1/2
f 51/1/2 52/1/2 54/1/2
f 49/1/2 53/1/2 55/1/2
f 53/1/2 54/1/2 55/1/2
f 54/1/2 52/1/2 56/1/2
f 55/1/2 54/1/2 56/1/2
f 59/1/3 58/1/3 57/1/3
f 60/1/3 58/1/3 59/1/3
f 62/1/3 58/1/3 60/1/3
f 63/1/3 62/1/3 61/1/3
f 64/1/3 58/1/3 62/1/3
f 64/1/3 62/1/3 63/1/3
f 67/1/3 66/1/3 65/1/3
f 68/1/3 66/1/3 67/1/3
f 73/1/3 70/1/3 69/1/3
f 74/1/3 70/1/3 73/1/3
f 75/1/3 72/1/3 71/1/3
f 76/1/3 72/1/3 75/1/3
f 79/1/3 78/1/3 77/1/3
f 80/1/3 78/1/3 79/1/3
f 81/1/4 82/1/4 83/1/4
f 83/1/4 82/1/4 84/1/4
f 85/1/4 86/1/4 87/1/4
f 87/1/4 86/1/4 88/1/4
f 89/1/4 90/1/4 91/1/4
f 91/1/4 90/1/4 92/1/4
f 93/1/4 94/1/4 95/1/4
f 95/1/4 94/1/4 96/1/4
f 97/1/4 98/1/4 99/1/4
f 99/1/4 98/1/4 100/1/4
f 100/1/4 98/1/4 102/1/4
f 101/1/4 102/1/4 103/1/4
f 102/1/4 98/1/4 104/1/4
f 103/1/4 102/1/4 104/1/4
f 109/1/5 106/1/5 105/1/5
f 110/1/5 106/1/5 109/1/5
f 111/1/5 108/1/5 107/1/5
f 112/1/5 108/1/5 111/1/5
f 117/1/5 114/1/5 113/1/5
f 118/1/5 114/1/5 117/1/5
f 119/1/5 116/1/5 115/1/5
f 120/1/5 116/1/5 119/1/5
f 124/1/5 122/1/5 121/1/5
f 125/1/5 122/1/5 124/1/5
f 127/1/5 124/1/5 123/1/5
f 127/1/5 126/1/5 125/1/5
f 127/1/5 125/1/5 124/1/5
f 128/1/5 126/1/5 127/1/5
f 129/1/5 126/1/5 128/1/5
f 130/1/5 126/1/5 129/1/5
f 131/1/5 129/1/5 128/1/5
f 132/1/5 129/1/5 131/1/5
f 135/1/5 134/1/5 133/1/5
f 136/1/5 134/1/5 135/1/5
f 139/1/5 138/1/5 137/1/5
f 140/1/5 138/1/5 139/1/5
f 141/1/6 142/1/6 143/1/6
f 143/1/6 142/1/6 144/1/6
f 145/1/6 146/1/6 147/1/6
f 147/1/6 146/1/6 148/1/6
f 149/1/6 150/1/6 151/1/6
f 151/1/6 150/1/6 152/1/6
